<svg width="1066" height="308" viewBox="0 0 1066 308" fill="none" xmlns="http://www.w3.org/2000/svg">
<path d="M452.8 113.72C444.947 109.587 436.473 106.073 427.38 103.18C418.287 100.287 409.503 98.84 401.03 98.84C389.25 98.84 379.95 101.527 373.13 106.9C366.31 112.067 362.9 119.3 362.9 128.6C362.9 135.007 365.173 140.587 369.72 145.34C374.267 150.093 380.157 154.227 387.39 157.74C394.623 161.253 402.27 164.56 410.33 167.66C419.63 170.967 428.62 175.203 437.3 180.37C445.98 185.33 453.11 192.047 458.69 200.52C464.27 208.993 467.06 220.36 467.06 234.62C467.06 246.4 464.063 257.147 458.07 266.86C452.077 276.573 443.5 284.323 432.34 290.11C421.387 295.69 408.16 298.48 392.66 298.48C378.193 298.48 364.45 296.207 351.43 291.66C338.617 286.907 327.56 281.327 318.26 274.92L332.83 249.19C340.063 254.77 348.95 259.627 359.49 263.76C370.03 267.893 380.053 269.96 389.56 269.96C396.587 269.96 403.407 268.823 410.02 266.55C416.633 264.07 422.11 260.247 426.45 255.08C430.997 249.913 433.27 243.093 433.27 234.62C433.27 227.593 431.307 221.6 427.38 216.64C423.453 211.68 418.287 207.443 411.88 203.93C405.68 200.417 398.963 197.317 391.73 194.63C384.703 191.943 377.47 189.05 370.03 185.95C362.797 182.643 356.08 178.613 349.88 173.86C343.887 169.107 338.927 163.32 335 156.5C331.28 149.473 329.42 141 329.42 131.08C329.42 118.887 332.21 108.347 337.79 99.46C343.577 90.5733 351.533 83.5467 361.66 78.38C371.787 73.2133 383.36 70.4233 396.38 70.01C411.26 70.01 424.28 71.87 435.44 75.59C446.6 79.1033 456.417 83.4433 464.89 88.61L452.8 113.72ZM483.219 71.25H632.949V102.56H573.429V296H540.879V102.56H483.219V71.25ZM725.648 71.25C741.355 71.25 755.305 74.04 767.498 79.62C779.692 84.9933 789.198 92.95 796.018 103.49C803.045 113.823 806.558 126.637 806.558 141.93C806.558 150.817 805.215 159.6 802.528 168.28C799.842 176.96 795.502 184.813 789.508 191.84C783.722 198.867 775.868 204.55 765.948 208.89C756.235 213.023 744.248 215.09 729.988 215.09H696.818V296H664.578V71.25H725.648ZM729.368 183.78C740.942 183.78 749.828 181.61 756.028 177.27C762.435 172.723 766.878 167.35 769.358 161.15C771.838 154.743 773.078 148.75 773.078 143.17C773.078 139.037 772.355 134.697 770.908 130.15C769.462 125.397 767.085 120.953 763.778 116.82C760.678 112.48 756.442 109.07 751.068 106.59C745.695 103.903 739.082 102.56 731.228 102.56H696.818V183.78H729.368ZM767.188 203L825.468 296H787.648L728.438 203.62L767.188 203ZM835.841 183.78C835.841 168.28 838.735 153.607 844.521 139.76C850.515 125.913 858.781 113.72 869.321 103.18C879.861 92.4333 892.055 84.0633 905.901 78.07C919.748 71.87 934.525 68.77 950.231 68.77C965.938 68.77 980.715 71.87 994.561 78.07C1008.61 84.0633 1020.91 92.4333 1031.45 103.18C1042.2 113.72 1050.57 125.913 1056.56 139.76C1062.55 153.607 1065.55 168.28 1065.55 183.78C1065.55 199.693 1062.55 214.573 1056.56 228.42C1050.57 242.267 1042.2 254.46 1031.45 265C1020.91 275.54 1008.61 283.807 994.561 289.8C980.715 295.587 965.938 298.48 950.231 298.48C934.525 298.48 919.748 295.587 905.901 289.8C892.055 283.807 879.861 275.643 869.321 265.31C858.781 254.977 850.515 242.887 844.521 229.04C838.735 214.987 835.841 199.9 835.841 183.78ZM869.321 184.09C869.321 199.383 872.938 213.333 880.171 225.94C887.405 238.547 897.221 248.57 909.621 256.01C922.021 263.45 935.868 267.17 951.161 267.17C966.248 267.17 979.888 263.45 992.081 256.01C1004.27 248.57 1013.99 238.547 1021.22 225.94C1028.45 213.333 1032.07 199.28 1032.07 183.78C1032.07 168.28 1028.35 154.227 1020.91 141.62C1013.68 128.807 1003.86 118.68 991.461 111.24C979.268 103.8 965.628 100.08 950.541 100.08C935.248 100.08 921.401 103.903 909.001 111.55C896.808 118.99 887.095 129.117 879.861 141.93C872.835 154.537 869.321 168.59 869.321 184.09Z" fill="white"/>
<path d="M0.943893 173.979C0.943893 196.07 18.8525 213.979 40.9439 213.979C63.0353 213.979 80.9439 196.07 80.9439 173.979C80.9439 151.888 63.0353 133.979 40.9439 133.979C18.8525 133.979 0.943893 151.888 0.943893 173.979ZM219.228 252.358L212.331 255.305L212.419 255.511L212.52 255.712L219.228 252.358ZM222.302 258.505L215.594 261.86L215.702 262.076L215.823 262.284L222.302 258.505ZM233.06 276.947L226.582 280.727L226.8 281.101L227.06 281.448L233.06 276.947ZM237.671 283.095L231.671 287.595L231.991 288.021L232.368 288.398L237.671 283.095ZM243.819 289.242L238.516 294.546L239.168 295.198L239.96 295.673L243.819 289.242ZM251.503 293.853L247.645 300.284L247.892 300.432L248.149 300.561L251.503 293.853ZM257.651 296.926L254.297 303.635L255.034 304.003L255.832 304.202L257.651 296.926ZM263.799 298.463L261.98 305.739L262.153 305.783L262.328 305.818L263.799 298.463ZM271.484 300L270.013 307.354L270.741 307.5H271.484V300ZM283.779 300V307.5H284.522L285.25 307.354L283.779 300ZM291.464 298.463L292.934 305.818L293.392 305.726L293.835 305.578L291.464 298.463ZM300.685 295.389L303.057 302.505L303.838 302.244L304.544 301.821L300.685 295.389ZM308.37 290.779L312.228 297.21L312.56 297.011L312.87 296.779L308.37 290.779ZM314.518 286.168L319.017 292.169L319.444 291.849L319.821 291.472L314.518 286.168ZM319.128 281.558L324.432 286.861L325.084 286.208L325.559 285.417L319.128 281.558ZM323.739 273.874L330.17 277.733L330.522 277.147L330.762 276.507L323.739 273.874ZM328.35 261.579L335.372 264.212L335.628 263.53L335.748 262.812L328.35 261.579ZM329.887 252.358L337.285 253.591L337.387 252.979V252.358H329.887ZM329.887 243.137H337.387V242.394L337.241 241.666L329.887 243.137ZM328.35 235.453L335.704 233.982L335.569 233.306L335.313 232.667L328.35 235.453ZM325.276 227.768L332.24 224.983L332.124 224.693L331.984 224.414L325.276 227.768ZM322.202 221.621L328.91 218.267L328.817 218.081L328.714 217.9L322.202 221.621ZM316.055 210.863L322.566 207.142L322.527 207.073L322.486 207.004L316.055 210.863ZM311.444 203.179L317.875 199.32L317.853 199.284L317.831 199.248L311.444 203.179ZM299.148 183.2L292.672 186.983L292.716 187.058L292.761 187.131L299.148 183.2ZM208.469 27.9789L214.945 24.1958L214.457 23.3599L213.772 22.6755L208.469 27.9789ZM197.711 17.2211L203.014 11.9176L202.304 11.2074L201.432 10.7091L197.711 17.2211ZM186.952 11.0737L190.673 4.56177L189.775 4.0485L188.771 3.79759L186.952 11.0737ZM174.657 8L176.476 0.723906L175.58 0.5H174.657V8ZM160.824 8V0.5H159.901L159.006 0.723906L160.824 8ZM154.677 9.53684L152.858 2.26075L152.443 2.36434L152.043 2.51432L154.677 9.53684ZM142.381 14.1474L139.748 7.12485L138.94 7.42799L138.221 7.90688L142.381 14.1474ZM133.16 20.2947L129 14.0542L128.382 14.4662L127.857 14.9913L133.16 20.2947ZM125.475 27.9789L120.172 22.6755L119.647 23.2006L119.235 23.8185L125.475 27.9789ZM119.327 37.2L113.087 33.0396L112.988 33.1881L112.896 33.3411L119.327 37.2ZM114.717 44.8842L108.285 41.0253L108.222 41.1319L108.161 41.2406L114.717 44.8842ZM88.6525 91.7771L95.1535 95.517L95.1811 95.4691L95.208 95.4207L88.6525 91.7771ZM59.7731 127.914C57.7679 131.538 59.0805 136.102 62.705 138.107C66.3294 140.112 70.8931 138.8 72.8983 135.175L59.7731 127.914ZM80.4166 106.093L73.9156 102.353L73.8843 102.408L73.854 102.463L80.4166 106.093ZM45.8179 179.679C62.3456 165.548 90.2166 152.584 120.226 158.478C149.841 164.295 183.998 188.997 212.331 255.305L226.125 249.411C196.669 180.477 159.359 150.877 123.117 143.759C87.2683 136.718 54.8916 152.186 36.0699 168.279L45.8179 179.679ZM212.52 255.712L215.594 261.86L229.01 255.151L225.936 249.004L212.52 255.712ZM215.823 262.284L226.582 280.727L239.538 273.168L228.78 254.726L215.823 262.284ZM227.06 281.448L231.671 287.595L243.671 278.595L239.06 272.447L227.06 281.448ZM232.368 288.398L238.516 294.546L249.122 283.939L242.974 277.791L232.368 288.398ZM239.96 295.673L247.645 300.284L255.362 287.421L247.677 282.811L239.96 295.673ZM248.149 300.561L254.297 303.635L261.005 290.218L254.857 287.144L248.149 300.561ZM255.832 304.202L261.98 305.739L265.618 291.187L259.47 289.65L255.832 304.202ZM262.328 305.818L270.013 307.354L272.954 292.646L265.27 291.109L262.328 305.818ZM271.484 307.5H283.779V292.5H271.484V307.5ZM285.25 307.354L292.934 305.818L289.993 291.109L282.308 292.646L285.25 307.354ZM293.835 305.578L303.057 302.505L298.314 288.274L289.092 291.348L293.835 305.578ZM304.544 301.821L312.228 297.21L304.511 284.348L296.827 288.958L304.544 301.821ZM312.87 296.779L319.017 292.169L310.018 280.168L303.87 284.779L312.87 296.779ZM319.821 291.472L324.432 286.861L313.825 276.254L309.214 280.865L319.821 291.472ZM325.559 285.417L330.17 277.733L317.308 270.015L312.697 277.699L325.559 285.417ZM330.762 276.507L335.372 264.212L321.328 258.945L316.717 271.24L330.762 276.507ZM335.748 262.812L337.285 253.591L322.489 251.125L320.952 260.346L335.748 262.812ZM337.387 252.358V243.137H322.387V252.358H337.387ZM337.241 241.666L335.704 233.982L320.996 236.924L322.533 244.608L337.241 241.666ZM335.313 232.667L332.24 224.983L318.313 230.554L321.386 238.238L335.313 232.667ZM331.984 224.414L328.91 218.267L315.494 224.975L318.568 231.123L331.984 224.414ZM328.714 217.9L322.566 207.142L309.543 214.584L315.69 225.342L328.714 217.9ZM322.486 207.004L317.875 199.32L305.013 207.038L309.623 214.722L322.486 207.004ZM317.831 199.248L305.536 179.269L292.761 187.131L305.056 207.11L317.831 199.248ZM305.624 179.417L214.945 24.1958L201.993 31.7621L292.672 186.983L305.624 179.417ZM213.772 22.6755L203.014 11.9176L192.408 22.5245L203.166 33.2824L213.772 22.6755ZM201.432 10.7091L190.673 4.56177L183.231 17.5856L193.99 23.733L201.432 10.7091ZM188.771 3.79759L176.476 0.723906L172.838 15.2761L185.133 18.3498L188.771 3.79759ZM174.657 0.5H168.509V15.5H174.657V0.5ZM168.509 0.5H160.824V15.5H168.509V0.5ZM159.006 0.723906L152.858 2.26075L156.496 16.8129L162.643 15.2761L159.006 0.723906ZM152.043 2.51432L139.748 7.12485L145.015 21.1699L157.31 16.5594L152.043 2.51432ZM138.221 7.90688L129 14.0542L137.32 26.5352L146.541 20.3879L138.221 7.90688ZM127.857 14.9913L120.172 22.6755L130.778 33.2824L138.463 25.5982L127.857 14.9913ZM119.235 23.8185L113.087 33.0396L125.568 41.3604L131.715 32.1394L119.235 23.8185ZM112.896 33.3411L108.285 41.0253L121.148 48.7431L125.758 41.0589L112.896 33.3411ZM108.161 41.2406L95.1291 64.687L108.24 71.9743L121.272 48.5279L108.161 41.2406ZM95.1291 64.687L82.0971 88.1334L95.208 95.4207L108.24 71.9743L95.1291 64.687ZM82.1516 88.0371L73.9156 102.353L86.9176 109.833L95.1535 95.517L82.1516 88.0371ZM73.854 102.463L66.8135 115.188L79.9387 122.45L86.9792 109.724L73.854 102.463ZM66.8135 115.188L59.7731 127.914L72.8983 135.175L79.9387 122.45L66.8135 115.188Z" fill="white"/>
<path d="M1.47525 173.433C1.47525 195.524 19.3839 213.433 41.4753 213.433C63.5666 213.433 81.4753 195.524 81.4753 173.433C81.4753 151.342 63.5666 133.433 41.4753 133.433C19.3839 133.433 1.47525 151.342 1.47525 173.433ZM16.5703 221.807L23.2945 225.13L23.363 224.991L23.4257 224.849L16.5703 221.807ZM9.53642 236.045L2.81229 232.723L2.31917 233.721L2.13724 234.819L9.53642 236.045ZM8 245.32L0.600824 244.094L0.431766 245.115L0.545316 246.143L8 245.32ZM9.53642 259.233L2.08174 260.056L2.20308 261.155L2.63629 262.172L9.53642 259.233ZM14.1457 270.054L7.24555 272.993L7.51448 273.625L7.89353 274.197L14.1457 270.054ZM20.2914 279.33L14.0392 283.472L14.6102 284.334L15.3931 285.009L20.2914 279.33ZM31.0463 288.605L26.1481 294.285L27.0197 295.036L28.0765 295.492L31.0463 288.605ZM41.8012 293.243L38.8315 300.13L39.2701 300.319L39.7291 300.451L41.8012 293.243ZM52.5562 296.335L50.484 303.543L51.4996 303.835H52.5562V296.335ZM67.9204 296.335V303.835H68.8492L69.75 303.608L67.9204 296.335ZM74.0661 294.789L75.8956 302.062L76.3917 301.937L76.8663 301.746L74.0661 294.789ZM81.7482 291.697L84.5484 298.655L84.839 298.538L85.1188 298.397L81.7482 291.697ZM87.8938 288.605L91.2645 295.305L91.9761 294.947L92.5966 294.448L87.8938 288.605ZM95.5759 282.422L100.279 288.264L100.828 287.822L101.285 287.285L95.5759 282.422ZM104.794 271.6L110.504 276.464L110.916 275.98L111.241 275.433L104.794 271.6ZM116.966 251.13L123.412 254.963L123.46 254.883L123.505 254.802L116.966 251.13ZM126.304 234.499L132.844 238.171L132.871 238.122L132.898 238.073L126.304 234.499ZM135.523 217.494L142.116 221.068L142.175 220.96L142.231 220.849L135.523 217.494ZM156.048 193.226C157.901 189.521 156.4 185.016 152.695 183.163C148.991 181.31 144.485 182.811 142.632 186.515L156.048 193.226ZM34.0363 182.447L27.8 178.281L27.4422 178.816L27.1809 179.405L34.0363 182.447ZM37.2244 177.675L31.9267 172.366L31.4008 172.891L30.9881 173.509L37.2244 177.675ZM9.84622 218.485L2.81229 232.723L16.2605 239.367L23.2945 225.13L9.84622 218.485ZM2.13724 234.819L0.600824 244.094L15.3992 246.546L16.9356 237.27L2.13724 234.819ZM0.545316 246.143L2.08174 260.056L16.9911 258.41L15.4547 244.497L0.545316 246.143ZM2.63629 262.172L7.24555 272.993L21.0458 267.115L16.4366 256.294L2.63629 262.172ZM7.89353 274.197L14.0392 283.472L26.5435 275.187L20.3978 265.912L7.89353 274.197ZM15.3931 285.009L26.1481 294.285L35.9445 282.926L25.1896 273.65L15.3931 285.009ZM28.0765 295.492L38.8315 300.13L44.771 286.356L34.0161 281.718L28.0765 295.492ZM39.7291 300.451L50.484 303.543L54.6283 289.127L43.8734 286.035L39.7291 300.451ZM52.5562 303.835H60.2383V288.835H52.5562V303.835ZM60.2383 303.835H67.9204V288.835H60.2383V303.835ZM69.75 303.608L75.8956 302.062L72.2365 287.515L66.0908 289.061L69.75 303.608ZM76.8663 301.746L84.5484 298.655L78.9479 284.739L71.2658 287.831L76.8663 301.746ZM85.1188 298.397L91.2645 295.305L84.5232 281.905L78.3776 284.997L85.1188 298.397ZM92.5966 294.448L100.279 288.264L90.8732 276.579L83.1911 282.763L92.5966 294.448ZM101.285 287.285L110.504 276.464L99.0852 266.737L89.8667 277.558L101.285 287.285ZM111.241 275.433L123.412 254.963L110.519 247.297L98.3479 267.767L111.241 275.433ZM123.505 254.802L132.844 238.171L119.765 230.827L110.426 247.458L123.505 254.802ZM132.898 238.073L142.116 221.068L128.929 213.92L119.711 230.924L132.898 238.073ZM27.1809 179.405L9.71498 218.765L23.4257 224.849L40.8917 185.489L27.1809 179.405ZM30.9881 173.509L27.8 178.281L40.2726 186.613L43.4608 181.841L30.9881 173.509ZM36.1775 168.124L35.1148 169.185L45.7103 179.802L46.773 178.742L36.1775 168.124ZM35.1148 169.185L33.5208 170.775L44.1162 181.393L45.7103 179.802L35.1148 169.185ZM33.5208 170.775L31.9267 172.366L42.5221 182.984L44.1162 181.393L33.5208 170.775ZM142.231 220.849L149.139 207.037L135.724 200.327L128.815 214.139L142.231 220.849ZM149.139 207.037L156.048 193.226L142.632 186.515L135.724 200.327L149.139 207.037Z" fill="white"/>
</svg>
