<svg width="315" height="287" viewBox="0 0 315 287" fill="none" xmlns="http://www.w3.org/2000/svg">
<path d="M7.66667 162.515C7.66667 178.715 20.7996 191.848 37 191.848C53.2004 191.848 66.3333 178.715 66.3333 162.515C66.3333 146.314 53.2004 133.181 37 133.181C20.7996 133.181 7.66667 146.314 7.66667 162.515ZM204.764 236.424L199.705 238.582L199.769 238.733L199.843 238.88L204.764 236.424ZM207.657 242.221L202.735 244.677L202.814 244.835L202.903 244.988L207.657 242.221ZM217.78 259.612L213.027 262.379L213.187 262.653L213.377 262.907L217.78 259.612ZM222.119 265.409L217.716 268.704L217.95 269.017L218.226 269.294L222.119 265.409ZM227.904 271.205L224.011 275.09L224.489 275.57L225.07 275.919L227.904 271.205ZM235.135 275.553L232.301 280.267L232.482 280.376L232.671 280.47L235.135 275.553ZM240.92 278.451L238.456 283.369L238.997 283.64L239.584 283.787L240.92 278.451ZM246.705 279.901L245.369 285.236L245.496 285.268L245.624 285.293L246.705 279.901ZM253.936 281.35L252.856 286.743L253.391 286.85H253.936V281.35ZM265.506 281.35V286.85H266.052L266.587 286.743L265.506 281.35ZM272.737 279.901L273.818 285.293L274.155 285.226L274.48 285.117L272.737 279.901ZM281.415 277.002L283.157 282.219L283.731 282.027L284.249 281.716L281.415 277.002ZM288.646 272.655L291.48 277.368L291.723 277.222L291.95 277.051L288.646 272.655ZM294.431 268.307L297.735 272.704L298.048 272.469L298.324 272.192L294.431 268.307ZM298.77 263.959L302.663 267.844L303.141 267.365L303.489 266.785L298.77 263.959ZM303.109 256.713L307.827 259.539L308.084 259.11L308.26 258.641L303.109 256.713ZM307.447 245.12L312.598 247.047L312.785 246.548L312.873 246.022L307.447 245.12ZM308.894 236.424L314.319 237.327L314.394 236.879V236.424H308.894ZM308.894 227.729H314.394V227.186L314.287 226.653L308.894 227.729ZM307.447 220.483L312.841 219.406L312.742 218.912L312.555 218.444L307.447 220.483ZM304.555 213.237L309.663 211.198L309.578 210.986L309.476 210.781L304.555 213.237ZM301.662 207.44L306.584 204.984L306.516 204.848L306.44 204.716L301.662 207.44ZM295.877 197.296L300.655 194.571L300.626 194.52L300.596 194.47L295.877 197.296ZM291.539 190.05L296.257 187.224L296.242 187.198L296.225 187.171L291.539 190.05ZM279.969 171.21L275.217 173.98L275.249 174.034L275.282 174.088L279.969 171.21ZM194.64 24.8397L199.392 22.0697L199.035 21.4568L198.533 20.9546L194.64 24.8397ZM184.517 14.6953L188.41 10.8102L187.889 10.2885L187.25 9.92233L184.517 14.6953ZM174.393 8.89842L177.126 4.1255L176.467 3.74792L175.73 3.56328L174.393 8.89842ZM162.823 6L164.16 0.664861L163.501 0.5H162.823V6ZM149.807 6V0.5H149.128L148.47 0.664861L149.807 6ZM144.022 7.44921L142.685 2.11407L142.381 2.19032L142.087 2.3007L144.022 7.44921ZM132.452 11.7968L130.517 6.64833L129.924 6.87132L129.397 7.22345L132.452 11.7968ZM123.775 17.5937L120.719 13.0203L120.266 13.3229L119.881 13.7086L123.775 17.5937ZM116.543 24.8397L112.65 20.9546L112.266 21.34L111.964 21.7932L116.543 24.8397ZM110.758 33.535L106.179 30.4885L106.107 30.5973L106.04 30.7095L110.758 33.535ZM106.42 40.781L101.701 37.9556L101.654 38.0337L101.61 38.1133L106.42 40.781ZM81.8935 85L86.6634 87.7383L86.6836 87.7031L86.7033 87.6677L81.8935 85ZM56.0786 119.842C54.6105 122.501 55.5761 125.847 58.2353 127.315C60.8945 128.783 64.2404 127.817 65.7085 125.158L56.0786 119.842ZM74.1435 98.5L69.3736 95.7617L69.3508 95.8016L69.3286 95.8417L74.1435 98.5ZM40.5786 166.691C56.3702 153.161 83.062 140.678 111.902 146.354C140.454 151.974 172.925 175.776 199.705 238.582L209.823 234.267C182.225 169.542 147.445 142.139 114.026 135.561C80.8943 129.04 50.8934 143.368 33.4214 158.338L40.5786 166.691ZM199.843 238.88L202.735 244.677L212.578 239.766L209.685 233.969L199.843 238.88ZM202.903 244.988L213.027 262.379L222.534 256.845L212.41 239.454L202.903 244.988ZM213.377 262.907L217.716 268.704L226.522 262.113L222.183 256.316L213.377 262.907ZM218.226 269.294L224.011 275.09L231.797 267.32L226.012 261.523L218.226 269.294ZM225.07 275.919L232.301 280.267L237.969 270.839L230.738 266.492L225.07 275.919ZM232.671 280.47L238.456 283.369L243.384 273.534L237.599 270.636L232.671 280.47ZM239.584 283.787L245.369 285.236L248.042 274.565L242.257 273.116L239.584 283.787ZM245.624 285.293L252.856 286.743L255.017 275.957L247.786 274.508L245.624 285.293ZM253.936 286.85H265.506V275.85H253.936V286.85ZM266.587 286.743L273.818 285.293L271.657 274.508L264.425 275.957L266.587 286.743ZM274.48 285.117L283.157 282.219L279.672 271.786L270.995 274.684L274.48 285.117ZM284.249 281.716L291.48 277.368L285.812 267.941L278.581 272.289L284.249 281.716ZM291.95 277.051L297.735 272.704L291.127 263.91L285.342 268.258L291.95 277.051ZM298.324 272.192L302.663 267.844L294.877 260.074L290.538 264.422L298.324 272.192ZM303.489 266.785L307.827 259.539L298.39 253.888L294.051 261.134L303.489 266.785ZM308.26 258.641L312.598 247.047L302.296 243.192L297.957 254.786L308.26 258.641ZM312.873 246.022L314.319 237.327L303.468 235.522L302.022 244.217L312.873 246.022ZM314.394 236.424V227.729H303.394V236.424H314.394ZM314.287 226.653L312.841 219.406L302.054 221.56L303.5 228.806L314.287 226.653ZM312.555 218.444L309.663 211.198L299.447 215.276L302.339 222.522L312.555 218.444ZM309.476 210.781L306.584 204.984L296.741 209.896L299.633 215.693L309.476 210.781ZM306.44 204.716L300.655 194.571L291.1 200.02L296.885 210.165L306.44 204.716ZM300.596 194.47L296.257 187.224L286.82 192.875L291.159 200.121L300.596 194.47ZM296.225 187.171L284.655 168.332L275.282 174.088L286.852 192.928L296.225 187.171ZM284.72 168.44L199.392 22.0697L189.889 27.6097L275.217 173.98L284.72 168.44ZM198.533 20.9546L188.41 10.8102L180.624 18.5804L190.747 28.7248L198.533 20.9546ZM187.25 9.92233L177.126 4.1255L171.66 13.6713L181.784 19.4682L187.25 9.92233ZM175.73 3.56328L164.16 0.664861L161.487 11.3351L173.056 14.2336L175.73 3.56328ZM162.823 0.5H157.038V11.5H162.823V0.5ZM157.038 0.5H149.807V11.5H157.038V0.5ZM148.47 0.664861L142.685 2.11407L145.358 12.7843L151.143 11.3351L148.47 0.664861ZM142.087 2.3007L130.517 6.64833L134.387 16.9453L145.957 12.5977L142.087 2.3007ZM129.397 7.22345L120.719 13.0203L126.83 22.1671L135.507 16.3702L129.397 7.22345ZM119.881 13.7086L112.65 20.9546L120.436 28.7248L127.668 21.4788L119.881 13.7086ZM111.964 21.7932L106.179 30.4885L115.338 36.5815L121.122 27.8862L111.964 21.7932ZM106.04 30.7095L101.701 37.9556L111.138 43.6065L115.477 36.3604L106.04 30.7095ZM101.61 38.1133L89.3469 60.2228L98.9663 65.5582L111.229 43.4487L101.61 38.1133ZM89.3469 60.2228L77.0838 82.3323L86.7033 87.6677L98.9663 65.5582L89.3469 60.2228ZM77.1236 82.2617L69.3736 95.7617L78.9134 101.238L86.6634 87.7383L77.1236 82.2617ZM69.3286 95.8417L62.7036 107.842L72.3335 113.158L78.9585 101.158L69.3286 95.8417ZM62.7036 107.842L56.0786 119.842L65.7085 125.158L72.3335 113.158L62.7036 107.842Z" fill="white"/>
<path d="M8.16667 162C8.16667 178.2 21.2996 191.333 37.5 191.333C53.7004 191.333 66.8333 178.2 66.8333 162C66.8333 145.8 53.7004 132.667 37.5 132.667C21.2996 132.667 8.16667 145.8 8.16667 162ZM14.0646 207.616L18.9977 210.048L19.0478 209.946L19.0936 209.843L14.0646 207.616ZM7.44576 221.041L2.5127 218.609L2.15231 219.34L2.01939 220.144L7.44576 221.041ZM6 229.788L0.573632 228.891L0.450171 229.638L0.533093 230.39L6 229.788ZM7.44576 242.908L1.97886 243.51L2.06749 244.314L2.38403 245.059L7.44576 242.908ZM11.783 253.112L6.72131 255.263L6.91795 255.726L7.1952 256.145L11.783 253.112ZM17.5661 261.858L12.9782 264.892L13.3963 265.524L13.9697 266.02L17.5661 261.858ZM27.6864 270.605L24.0901 274.766L24.7292 275.318L25.5047 275.654L27.6864 270.605ZM37.8068 274.978L35.6251 280.027L35.9471 280.166L36.2842 280.263L37.8068 274.978ZM47.9271 277.894L46.4046 283.179L47.1507 283.394H47.9271V277.894ZM62.3847 277.894V283.394H63.0672L63.7291 283.227L62.3847 277.894ZM68.1677 276.436L69.5121 281.769L69.8765 281.677L70.225 281.537L68.1677 276.436ZM75.3966 273.52L77.4538 278.621L77.6671 278.535L77.8725 278.431L75.3966 273.52ZM81.1796 270.605L83.6555 275.516L84.1776 275.253L84.6327 274.886L81.1796 270.605ZM88.4084 264.774L91.8615 269.055L92.264 268.73L92.5989 268.336L88.4084 264.774ZM97.083 254.57L101.273 258.132L101.575 257.777L101.813 257.376L97.083 254.57ZM108.536 235.266L113.266 238.073L113.301 238.014L113.334 237.955L108.536 235.266ZM117.324 219.584L122.122 222.272L122.142 222.237L122.161 222.201L117.324 219.584ZM125.998 203.548L130.836 206.165L130.879 206.086L130.919 206.005L125.998 203.548ZM143.921 179.956C145.278 177.238 144.174 173.936 141.456 172.579C138.738 171.222 135.436 172.326 134.079 175.044L143.921 179.956ZM30.5 170.5L25.9237 167.449L25.662 167.842L25.471 168.273L30.5 170.5ZM33.5 166L29.6109 162.111L29.2258 162.496L28.9237 162.949L33.5 166ZM9.13158 205.184L2.5127 218.609L12.3788 223.473L18.9977 210.048L9.13158 205.184ZM2.01939 220.144L0.573632 228.891L11.4264 230.685L12.8721 221.938L2.01939 220.144ZM0.533093 230.39L1.97886 243.51L12.9127 242.305L11.4669 229.185L0.533093 230.39ZM2.38403 245.059L6.72131 255.263L16.8448 250.96L12.5075 240.756L2.38403 245.059ZM7.1952 256.145L12.9782 264.892L22.1539 258.825L16.3709 250.078L7.1952 256.145ZM13.9697 266.02L24.0901 274.766L31.2828 266.444L21.1625 257.697L13.9697 266.02ZM25.5047 275.654L35.6251 280.027L39.9885 269.929L29.8681 265.556L25.5047 275.654ZM36.2842 280.263L46.4046 283.179L49.4496 272.608L39.3293 269.693L36.2842 280.263ZM47.9271 283.394H55.1559V272.394H47.9271V283.394ZM55.1559 283.394H62.3847V272.394H55.1559V283.394ZM63.7291 283.227L69.5121 281.769L66.8234 271.103L61.0404 272.56L63.7291 283.227ZM70.225 281.537L77.4538 278.621L73.3393 268.42L66.1105 271.335L70.225 281.537ZM77.8725 278.431L83.6555 275.516L78.7037 265.694L72.9206 268.609L77.8725 278.431ZM84.6327 274.886L91.8615 269.055L84.9553 260.493L77.7265 266.324L84.6327 274.886ZM92.5989 268.336L101.273 258.132L92.8925 251.007L84.2179 261.212L92.5989 268.336ZM101.813 257.376L113.266 238.073L103.806 232.46L92.3529 251.763L101.813 257.376ZM113.334 237.955L122.122 222.272L112.526 216.895L103.738 232.578L113.334 237.955ZM122.161 222.201L130.836 206.165L121.161 200.931L112.486 216.967L122.161 222.201ZM25.471 168.273L9.03563 205.389L19.0936 209.843L35.529 172.727L25.471 168.273ZM28.9237 162.949L25.9237 167.449L35.0763 173.551L38.0763 169.051L28.9237 162.949ZM33.6109 158.111L32.6109 159.111L40.3891 166.889L41.3891 165.889L33.6109 158.111ZM32.6109 159.111L31.1109 160.611L38.8891 168.389L40.3891 166.889L32.6109 159.111ZM31.1109 160.611L29.6109 162.111L37.3891 169.889L38.8891 168.389L31.1109 160.611ZM130.919 206.005L137.42 192.98L127.578 188.068L121.077 201.092L130.919 206.005ZM137.42 192.98L143.921 179.956L134.079 175.044L127.578 188.068L137.42 192.98Z" fill="white"/>
</svg>
