<svg width="970" height="292" viewBox="0 0 970 292" fill="none" xmlns="http://www.w3.org/2000/svg">
<path d="M0.72 254L103.64 16.85H106.12L209.04 254H156.96L91.24 87.22L123.79 64.9L45.05 254H0.72ZM71.09 171.54H139.6L155.41 209.36H57.14L71.09 171.54ZM348.63 81.02C339.95 76.2667 331.063 72.34 321.97 69.24C313.083 66.14 304.713 64.59 296.86 64.59C287.146 64.59 279.5 66.5533 273.92 70.48C268.34 74.4067 265.55 80.2967 265.55 88.15C265.55 93.5233 267.616 98.38 271.75 102.72C276.09 106.853 281.566 110.573 288.18 113.88C295 117.187 302.026 120.183 309.26 122.87C318.146 126.177 326.723 130.413 334.99 135.58C343.256 140.54 350.076 147.463 355.45 156.35C360.823 165.03 363.51 176.603 363.51 191.07C363.51 202.643 360.513 213.39 354.52 223.31C348.526 233.23 339.743 241.29 328.17 247.49C316.596 253.483 302.336 256.48 285.39 256.48C272.37 256.48 259.04 254.517 245.4 250.59C231.966 246.663 219.256 240.463 207.27 231.99L227.11 196.96C234.963 202.747 243.953 207.5 254.08 211.22C264.206 214.94 273.3 216.8 281.36 216.8C286.733 216.8 292.106 216.077 297.48 214.63C303.06 212.977 307.606 210.29 311.12 206.57C314.84 202.85 316.7 197.683 316.7 191.07C316.7 186.523 315.15 182.39 312.05 178.67C309.156 174.95 305.126 171.54 299.96 168.44C295 165.34 289.523 162.653 283.53 160.38C276.503 157.693 269.27 154.593 261.83 151.08C254.39 147.567 247.363 143.33 240.75 138.37C234.343 133.203 229.073 126.9 224.94 119.46C221.013 111.813 219.05 102.513 219.05 91.56C219.05 78.3333 221.943 66.8633 227.73 57.15C233.723 47.4367 242.093 39.79 252.84 34.21C263.586 28.4233 275.986 25.22 290.04 24.6C308.433 24.6 323.313 26.77 334.68 31.11C346.253 35.45 356.586 40.6167 365.68 46.61L348.63 81.02ZM376.532 25.84H530.292V69.24H474.802V254H429.852V69.24H376.532V25.84ZM627.303 25.84C646.523 25.84 662.746 29.0433 675.973 35.45C689.199 41.65 699.223 50.5367 706.043 62.11C713.069 73.4767 716.583 87.0133 716.583 102.72C716.583 112.02 715.136 121.32 712.243 130.62C709.556 139.92 705.009 148.393 698.603 156.04C692.403 163.687 684.136 169.887 673.803 174.64C663.469 179.187 650.656 181.46 635.363 181.46H603.123V254H558.173V25.84H627.303ZM635.053 138.06C644.146 138.06 651.173 136.2 656.133 132.48C661.299 128.553 664.916 124.007 666.983 118.84C669.049 113.467 670.083 108.61 670.083 104.27C670.083 101.79 669.669 98.69 668.843 94.97C668.223 91.0433 666.776 87.1167 664.503 83.19C662.229 79.2633 658.716 75.9567 653.963 73.27C649.416 70.5833 643.216 69.24 635.363 69.24H603.123V138.06H635.053ZM677.213 165.96L733.633 254H681.243L623.583 167.2L677.213 165.96ZM733.674 140.23C733.674 124.523 736.67 109.643 742.664 95.59C748.657 81.5367 756.924 69.1367 767.464 58.39C778.21 47.4367 790.61 38.86 804.664 32.66C818.717 26.46 833.7 23.36 849.614 23.36C865.734 23.36 880.821 26.46 894.874 32.66C908.927 38.86 921.327 47.4367 932.074 58.39C943.027 69.1367 951.501 81.5367 957.494 95.59C963.694 109.643 966.794 124.523 966.794 140.23C966.794 156.35 963.694 171.437 957.494 185.49C951.501 199.543 943.027 211.943 932.074 222.69C921.327 233.23 908.927 241.497 894.874 247.49C880.821 253.483 865.837 256.48 849.924 256.48C833.804 256.48 818.717 253.483 804.664 247.49C790.61 241.497 778.21 233.23 767.464 222.69C756.924 211.943 748.657 199.543 742.664 185.49C736.67 171.437 733.674 156.35 733.674 140.23ZM780.174 140.23C780.174 153.663 783.274 165.96 789.474 177.12C795.88 188.073 804.457 196.857 815.204 203.47C825.95 209.877 838.04 213.08 851.474 213.08C864.494 213.08 876.171 209.877 886.504 203.47C897.044 196.857 905.311 188.073 911.304 177.12C917.297 165.96 920.294 153.663 920.294 140.23C920.294 126.383 917.194 113.983 910.994 103.03C904.794 91.87 896.424 83.0867 885.884 76.68C875.344 70.0667 863.46 66.76 850.234 66.76C837.007 66.76 825.124 70.0667 814.584 76.68C804.044 83.0867 795.674 91.87 789.474 103.03C783.274 113.983 780.174 126.383 780.174 140.23Z" fill="white"/>
</svg>
